<svg height='451' width='451' fill="#EC5D57" xmlns="http://www.w3.org/2000/svg" xmlns:xlink="http://www.w3.org/1999/xlink" viewBox="0 0 24 24" version="1.1" x="0px" y="0px"><g stroke="none" stroke-width="1" fill="none" fill-rule="evenodd"><g fill="#F38F19"><path d="M22,4 C22,5.10471525 21.1047153,6 20,6 C18.8952847,6 18,5.10471525 18,4 C18,2.89528475 18.8952847,2 20,2 C21.1047153,2 22,2.89528475 22,4 Z M24,4 C24,1.79071525 22.2092847,0 20,0 C17.7907153,0 16,1.79071525 16,4 C16,6.20928475 17.7907153,8 20,8 C22.2092847,8 24,6.20928475 24,4 Z"></path><path d="M4,6 L7,6 C7.55228475,6 8,5.55228475 8,5 C8,4.44771525 7.55228475,4 7,4 L4,4 C3.44771525,4 3,4.44771525 3,5 C3,5.55228475 3.44771525,6 4,6 Z"></path><path d="M2,17 L6,17 C6.55228475,17 7,16.5522847 7,16 C7,15.4477153 6.55228475,15 6,15 L2,15 C1.44771525,15 1,15.4477153 1,16 C1,16.5522847 1.44771525,17 2,17 Z"></path><path d="M11,17 L22,17 C22.5522847,17 23,16.5522847 23,16 C23,15.4477153 22.5522847,15 22,15 L11,15 C10.4477153,15 10,15.4477153 10,16 C10,16.5522847 10.4477153,17 11,17 Z"></path><path d="M2,13 L10,13 C10.5522847,13 11,12.5522847 11,12 C11,11.4477153 10.5522847,11 10,11 L2,11 C1.44771525,11 1,11.4477153 1,12 C1,12.5522847 1.44771525,13 2,13 Z"></path><path d="M18,13 L22,13 C22.5522847,13 23,12.5522847 23,12 C23,11.4477153 22.5522847,11 22,11 L18,11 C17.4477153,11 17,11.4477153 17,12 C17,12.5522847 17.4477153,13 18,13 Z"></path><path d="M9,9 L12,9 C12.5522847,9 13,8.55228475 13,8 C13,7.44771525 12.5522847,7 12,7 L9,7 C8.44771525,7 8,7.44771525 8,8 C8,8.55228475 8.44771525,9 9,9 Z"></path><path d="M11,21 L14,21 C14.5522847,21 15,20.5522847 15,20 C15,19.4477153 14.5522847,19 14,19 L11,19 C10.4477153,19 10,19.4477153 10,20 C10,20.5522847 10.4477153,21 11,21 Z"></path><path d="M20,6 C18.8952847,6 18,5.10471525 18,4 C18,3.6397429 18.1029882,3.29005408 18.2984892,2.96846919 L18.8325437,2.08998823 L17.939615,1.58045768 C16.1356361,0.551055897 14.1052691,0 12,0 C5.37271525,0 0,5.37271525 0,12 C0,18.6272847 5.37271525,24 12,24 C18.6272847,24 24,18.6272847 24,12 C24,9.89473089 23.4489441,7.8643639 22.4195423,6.060385 L21.9100118,5.16745631 L21.0315308,5.70151082 C20.7099459,5.89701176 20.3602571,6 20,6 Z M22,12 C22,17.5227153 17.5227153,22 12,22 C6.47728475,22 2,17.5227153 2,12 C2,6.47728475 6.47728475,2 12,2 C13.4519139,2 14.8598383,2.31433189 16.1557519,2.91006911 C16.0534384,3.26147587 16,3.62696735 16,4 C16,6.20928475 17.7907153,8 20,8 C20.3730326,8 20.7385241,7.94656165 21.0899309,7.84424806 C21.6856681,9.14016165 22,10.5480861 22,12 Z"></path></g></g></svg>