<svg height="451" width="451" fill="#EC5D57" xmlns="http://www.w3.org/2000/svg" viewBox="0 0 141 99">
    <path d="M65.646 55.835H83.82c1.65 0 2.04-.952.865-2.127l-9.851-9.851a3.004 3.004 0 0 0-4.254 0l-4.926 4.925-1.08-1.08a3.002 3.002 0 0 0-4.252 0l-6.007 6.007c-1.179 1.18-.78 2.126.88 2.126h10.452zM19.93 81.173a2.977 2.977 0 0 0 2.063.827h94.014c.876 0 1.663-.377 2.21-.978L88.608 61.92a.5.5 0 1 1 .543-.84l29.607 19.101c.156-.363.242-.764.242-1.186v-58.99a3 3 0 0 0-.62-1.833L89.15 37.03a.5.5 0 0 1-.542-.84l29.012-18.717a2.972 2.972 0 0 0-1.613-.473H21.993c-.474 0-.922.11-1.32.307L49.77 36.08a.5.5 0 1 1-.542.84L19.815 17.943A3.001 3.001 0 0 0 19 20.005v58.99c0 .496.12.963.33 1.374l29.899-19.29a.5.5 0 1 1 .542.841L19.93 81.173zM15 20.005C15 16.139 18.126 13 21.993 13h94.014c3.866 0 6.993 3.137 6.993 7.005v58.99c0 3.866-3.126 7.005-6.993 7.005H21.993C18.127 86 15 82.863 15 78.995v-58.99zm42.318 24.29a2.565 2.565 0 1 0 0-5.13 2.565 2.565 0 0 0 0 5.13z"/>
</svg>
