<?xml version="1.0" standalone="no"?>
<!DOCTYPE svg PUBLIC "-//W3C//DTD SVG 20010904//EN"
 "http://www.w3.org/TR/2001/REC-SVG-20010904/DTD/svg10.dtd">
<svg version="1.0" xmlns="http://www.w3.org/2000/svg"
 width="700.000000pt" height="700.000000pt" viewBox="0 0 700.000000 700.000000"
 preserveAspectRatio="xMidYMid meet">
<metadata>
Created by potrace 1.11, written by Peter Selinger 2001-2013
</metadata>
<g transform="translate(0.000000,700.000000) scale(0.100000,-0.100000)"
fill="#000000" stroke="none">
<path d="M3298 6995 c-2 -1 -41 -5 -88 -9 -100 -7 -225 -22 -295 -36 -27 -5
-61 -12 -75 -14 -370 -68 -753 -211 -1095 -409 -343 -200 -615 -425 -909 -757
-101 -113 -279 -367 -374 -532 -248 -433 -406 -942 -450 -1448 -9 -110 -8
-503 1 -600 12 -109 27 -226 41 -295 2 -11 6 -36 10 -55 49 -272 156 -595 283
-857 365 -755 979 -1348 1747 -1687 152 -68 380 -147 516 -181 49 -12 158 -37
175 -41 101 -20 186 -35 238 -40 34 -3 65 -8 68 -9 15 -10 227 -20 409 -20
187 0 339 7 430 21 144 21 295 48 345 61 33 8 67 16 75 18 109 22 388 117 550
188 459 199 905 524 1223 892 33 39 63 72 67 75 3 3 44 55 90 115 340 447 562
950 664 1506 40 218 51 351 50 629 -1 260 -8 349 -45 574 -36 216 -98 444
-179 656 -28 72 -55 139 -59 148 -15 27 -51 111 -51 117 0 3 12 18 26 33 50
51 139 177 176 247 97 187 137 357 133 575 -4 238 -67 436 -200 630 -178 261
-464 444 -775 495 -83 14 -295 13 -379 -2 -219 -37 -434 -142 -593 -289 -20
-19 -40 -34 -43 -34 -3 0 -27 10 -53 21 -26 12 -65 29 -87 39 -132 60 -437
159 -565 185 -8 2 -33 8 -55 13 -48 13 -258 48 -335 56 -30 3 -77 9 -105 12
-51 6 -501 14 -507 9z m447 -589 c304 -27 645 -113 909 -230 41 -18 57 -30 53
-40 -32 -82 -52 -361 -33 -452 3 -16 8 -44 11 -62 47 -284 229 -567 480 -744
235 -166 537 -241 820 -203 22 3 43 6 47 6 4 0 31 7 60 15 29 7 54 14 56 14 4
0 53 -112 84 -195 68 -180 119 -378 148 -570 11 -71 20 -136 20 -142 0 -10
-127 -13 -600 -13 -579 0 -601 -1 -654 -20 -69 -26 -131 -86 -162 -156 -30
-69 -28 -177 5 -241 25 -51 82 -108 136 -137 40 -21 48 -21 658 -24 l618 -3
-6 -57 c-14 -137 -92 -498 -112 -522 -3 -3 -703 -5 -1556 -6 -854 0 -1568 -4
-1587 -8 -95 -23 -175 -98 -207 -196 -51 -157 43 -327 204 -367 29 -7 495 -11
1459 -11 778 0 1418 -2 1420 -5 6 -6 -81 -147 -139 -227 -143 -195 -326 -395
-477 -521 -36 -30 -67 -56 -70 -59 -19 -21 -213 -158 -300 -212 -329 -205
-760 -361 -1112 -404 -24 -2 -53 -7 -65 -9 -107 -23 -568 -23 -703 -1 -14 2
-47 7 -75 11 -96 12 -291 56 -409 91 -379 112 -744 311 -1056 574 -76 64 -268
254 -329 325 -104 124 -309 420 -298 432 3 3 187 5 409 5 365 0 408 2 452 19
95 35 150 91 181 183 52 154 -48 336 -205 372 -19 4 -275 8 -569 8 l-534 1
-23 80 c-30 102 -80 350 -88 438 l-6 67 1183 0 c1329 0 1236 -5 1326 76 102
92 126 236 59 360 -27 50 -105 112 -161 129 -44 13 -212 15 -1230 15 l-1179 0
6 58 c4 31 9 68 11 82 3 14 7 39 10 55 73 431 246 849 502 1210 l35 50 476 5
477 5 49 24 c99 49 156 133 164 242 7 107 -36 199 -121 257 -68 47 -105 54
-282 55 -126 1 -162 4 -154 13 5 7 54 41 107 77 427 284 914 452 1402 483 52
4 96 7 97 8 5 5 301 -2 368 -8z m2241 -11 c354 -103 527 -481 371 -813 -94
-202 -314 -334 -543 -327 -152 4 -278 59 -390 170 -185 184 -222 448 -98 686
83 158 247 275 414 296 25 3 46 7 48 8 9 8 148 -6 198 -20z"/>
<path d="M2542 4945 c-168 -51 -252 -240 -178 -400 41 -88 103 -138 201 -160
58 -13 948 -14 1005 -1 79 19 141 68 186 149 25 45 29 62 29 132 0 65 -5 89
-24 127 -33 65 -76 106 -141 137 l-55 26 -490 1 c-378 1 -500 -1 -533 -11z"/>
<path d="M3130 1446 c-140 -46 -217 -158 -207 -301 6 -98 52 -176 136 -227 65
-41 114 -44 611 -43 469 1 476 2 525 24 92 41 155 121 172 218 23 130 -41 253
-165 314 l-47 24 -495 2 c-356 1 -505 -2 -530 -11z"/>
</g>
</svg>
